{"title":"The.Amityville.Horror.1979.720p.BluRay.H264.AAC-RARBG","uid":12118704,"size":1541641701,"categoryP":"video","categoryS":"hd___movies","magnet":"?xt=urn:btih:7bcd03d1597af189bc2fbba8bf98f5305c4c9916&amp;dn=The.Amityville.Horror.1979.720p.BluRay.H264.AAC-RARBG&amp;tr=udp%3A%2F%2Ftracker.openbittorrent.com%3A80&amp;tr=udp%3A%2F%2Fopen.demonii.com%3A1337&amp;tr=udp%3A%2F%2Ftracker.coppersurfer.tk%3A6969&amp;tr=udp%3A%2F%2Fexodus.desync.com%3A6969","seeders":0,"leechers":0,"uploader":null,"files":5,"time":1436787506,"description":"Video\nID                                       : 1\nFormat                                   : AVC\nFormat/Info                              : Advanced Video Codec\nFormat profile                           : &lt;a class=&quot;__cf_email__&quot; href=&quot;/cdn-cgi/l/email-protection&quot; data-cfemail=&quot;3f775658577f730b110e&quot;&gt;[email&amp;#160;protected]&lt;/a&gt;&lt;script data-cfhash='f9e31' type=&quot;text/javascript&quot;&gt;\n/* &lt;![CDATA[ */!function(){try{var t=&quot;currentScript&quot;in document?document.currentScript:function(){for(var t=document.getElementsByTagName(&quot;script&quot;),e=t.length;e--;)if(t[e].getAttribute(&quot;data-cfhash&quot;))return t[e]}();if(t&amp;&amp;t.previousSibling){var e,r,n,i,c=t.previousSibling,a=c.getAttribute(&quot;data-cfemail&quot;);if(a){for(e=&quot;&quot;,r=parseInt(a.substr(0,2),16),n=2;a.length-n;n+=2)i=parseInt(a.substr(n,2),16)^r,e+=String.fromCharCode(i);e=document.createTextNode(e),c.parentNode.replaceChild(e,c)}t.parentNode.removeChild(t);}}catch(u){}}()/* ]]&gt; */&lt;/script&gt;\nFormat settings, CABAC                   : Yes\nFormat settings, ReFrames                : 4 frames\nCodec ID                                 : avc1\nCodec ID/Info                            : Advanced Video Coding\nDuration                                 : 1h 58mn\nBit rate                                 : 1 500 Kbps\nWidth                                    : 1 280 pixels\nHeight                                   : 694 pixels\nDisplay aspect ratio                     : 1.85:1\nFrame rate mode                          : Constant\nFrame rate                               : 23.976 fps\nColor space                              : YUV\nChroma subsampling                       : 4:2:0\nBit depth                                : 8 bits\nScan type                                : Progressive\nBits/(Pixel*Frame)                       : 0.070\nStream size                              : 1.24 GiB (87%)\nWriting library                          : x264 core 144 r2525M 40bb568\nEncoding settings                        : cabac=1 / ref=4 / deblock=1:-1:-1 / analyse=0x3:0x113 / me=umh / subme=9 / psy=1 / psy_rd=1.00:0.15 / mixed_ref=1 / me_range=24 / chroma_me=1 / trellis=2 / 8x8dct=1 / cqm=0 / deadzone=21,11 / fast_pskip=1 / chroma_qp_offset=-3 / threads=32 / lookahead_threads=4 / sliced_threads=0 / nr=0 / decimate=1 / interlaced=0 / bluray_compat=0 / constrained_intra=0 / bframes=3 / b_pyramid=2 / b_adapt=1 / b_bias=0 / direct=1 / weightb=1 / open_gop=0 / weightp=2 / keyint=250 / keyint_min=25 / scenecut=40 / intra_refresh=0 / rc_lookahead=50 / rc=2pass / mbtree=1 / bitrate=1500 / ratetol=1.0 / qcomp=0.60 / qpmin=0 / qpmax=69 / qpstep=4 / cplxblur=20.0 / qblur=0.5 / vbv_maxrate=31250 / vbv_bufsize=31250 / nal_hrd=none / filler=0 / ip_ratio=1.40 / aq=3:1.00\nEncoded date                             : UTC 1904-01-01 00:00:00\nTagged date                              : UTC 1904-01-01 00:00:00\n\nAudio\nID                                       : 2\nFormat                                   : AAC\nFormat/Info                              : Advanced Audio Codec\nFormat profile                           : LC\nCodec ID                                 : 40\nDuration                                 : 1h 58mn\nDuration_LastFrame                       : 43ms\nBit rate mode                            : Constant\nBit rate                                 : 224 Kbps\nChannel(s)                               : 2 channels\nChannel(s)_Original                      : 6 channels\nChannel positions                        : Front: L C R, Side: L R, LFE\nSampling rate                            : 48.0 KHz\nCompression mode                         : Lossy\nStream size                              : 190 MiB (13%)\nLanguage                                 : English\nEncoded date                             : UTC 1904-01-01 00:00:00\nTagged date                              : UTC 1904-01-01 00:00:00\n\nMenu #1\nID                                       : 3\nCodec ID                                 : text\nDuration                                 : 1h 58mn\nLanguage                                 : English\nEncoded date                             : UTC 1904-01-01 00:00:00\nTagged date                              : UTC 1904-01-01 00:00:00\nBit rate mode                            : CBR\n00:00:00.000                             : 00:00:00.000\n00:01:59.788                             : 00:01:59.745\n00:04:27.769                             : 00:04:27.726\n00:11:12.715                             : 00:11:12.672\n00:12:51.605                             : 00:12:51.562\n00:18:00.748                             : 00:18:00.705\n00:22:43.405                             : 00:22:43.362\n00:27:29.649                             : 00:27:29.606\n00:30:39.047                             : 00:30:39.004\n00:35:05.897                             : 00:35:05.854\n00:38:07.203                             : 00:38:07.160\n00:42:09.987                             : 00:42:09.944\n00:43:24.854                             : 00:43:24.811\n00:47:01.195                             : 00:47:01.152\n00:49:04.401                             : 00:49:04.358\n00:51:07.316                             : 00:51:07.273\n00:53:55.275                             : 00:53:55.232\n00:58:19.205                             : 00:58:19.162\n01:03:32.268                             : 01:03:32.225\n01:06:39.497                             : 01:06:39.454\n01:13:42.795                             : 01:13:42.752\n01:16:37.511                             : 01:16:37.468\n01:19:49.453                             : 01:19:49.410\n01:23:44.813                             : 01:23:44.770\n01:28:07.825                             : 01:28:07.782\n01:30:33.971                             : 01:30:33.928\n01:34:05.975                             : 01:34:05.932\n01:38:55.306                             : 01:38:55.263\n01:43:56.106                             : 01:43:56.063\n01:46:14.411                             : 01:46:14.368\n01:51:49.329                             : 01:51:49.286\n01:56:14.010                             : 01:56:13.967\n\nMenu #2\n00:00:00.043                             : 00:00:00.000\n00:01:59.788                             : 00:01:59.745\n00:04:27.769                             : 00:04:27.726\n00:11:12.715                             : 00:11:12.672\n00:12:51.605                             : 00:12:51.562\n00:18:00.748                             : 00:18:00.705\n00:22:43.405                             : 00:22:43.362\n00:27:29.649                             : 00:27:29.606\n00:30:39.047                             : 00:30:39.004\n00:35:05.897                             : 00:35:05.854\n00:38:07.203                             : 00:38:07.160\n00:42:09.987                             : 00:42:09.944\n00:43:24.854                             : 00:43:24.811\n00:47:01.195                             : 00:47:01.152\n00:49:04.401                             : 00:49:04.358\n00:51:07.316                             : 00:51:07.273\n00:53:55.275                             : 00:53:55.232\n00:58:19.205                             : 00:58:19.162\n01:03:32.268                             : 01:03:32.225\n01:06:39.497                             : 01:06:39.454\n01:13:42.795                             : 01:13:42.752\n01:16:37.511                             : 01:16:37.468\n01:19:49.453                             : 01:19:49.410\n01:23:44.813                             : 01:23:44.770\n01:28:07.825                             : 01:28:07.782\n01:30:33.971                             : 01:30:33.928\n01:34:05.975                             : 01:34:05.932\n01:38:55.306                             : 01:38:55.263\n01:43:56.106                             : 01:43:56.063\n01:46:14.411                             : 01:46:14.368\n01:51:49.329                             : 01:51:49.286\n01:56:14.010                             : 01:56:13.967","torrent":{"xt":"urn:btih:7bcd03d1597af189bc2fbba8bf98f5305c4c9916","amp;dn":"The.Amityville.Horror.1979.720p.BluRay.H264.AAC-RARBG","amp;tr":["udp%3A%2F%2Ftracker.openbittorrent.com%3A80","udp%3A%2F%2Fopen.demonii.com%3A1337","udp%3A%2F%2Ftracker.coppersurfer.tk%3A6969","udp%3A%2F%2Fexodus.desync.com%3A6969"],"infoHash":"7bcd03d1597af189bc2fbba8bf98f5305c4c9916","infoHashBuffer":{"type":"Buffer","data":[123,205,3,209,89,122,241,137,188,47,187,168,191,152,245,48,92,76,153,22]},"announce":[],"urlList":[]}}